<?xml version="1.0" encoding="UTF-8"?>
<!DOCTYPE svg PUBLIC "-//W3C//DTD SVG 1.1//EN" "http://www.w3.org/Graphics/SVG/1.1/DTD/svg11.dtd">
<!-- Creator: CorelDRAW X7 -->
<svg xmlns="http://www.w3.org/2000/svg" xml:space="preserve" width="210mm" height="297mm" version="1.1" style="shape-rendering:geometricPrecision; text-rendering:geometricPrecision; image-rendering:optimizeQuality; fill-rule:evenodd; clip-rule:evenodd"
viewBox="0 0 2100000 2970000"
 xmlns:xlink="http://www.w3.org/1999/xlink">
 <defs>
  <style type="text/css">
   <![CDATA[
    .fil1 {fill:#FEFEFE}
    .fil0 {fill:#00003C}
   ]]>
  </style>
 </defs>
 <g id="Capa_x0020_1">
  <metadata id="CorelCorpID_0Corel-Layer"/>
  <circle class="fil0" cx="1051384" cy="1485800" r="973297"/>
  <path class="fil1" d="M1381093 901388c0,-7014 -5228,-16425 -17469,-16425l-218327 235c-197118,-235 -255417,128206 -255632,250023l215 147286 -158519 0c-9669,0 -14591,10994 -14417,20085l-174 233569c0,8617 8139,18436 16219,18133l156891 0 0 518114c0,11972 3880,21109 15473,21109l220165 0c10271,0 19779,-6440 19779,-15343l0 -523880 215348 0c11776,0 20448,-8058 20448,-17685l0 -236685c0,-9994 -5965,-17417 -17639,-17417l-233974 -190c0,0 -2698,-130601 0,-130601l234544 0c18096,64 17069,-3566 17383,-17383 0,0 421,-234611 -314,-232945z"/>
 </g>
</svg>
