<?xml version="1.0" encoding="UTF-8"?>
<!DOCTYPE svg PUBLIC "-//W3C//DTD SVG 1.1//EN" "http://www.w3.org/Graphics/SVG/1.1/DTD/svg11.dtd">
<!-- Creator: CorelDRAW X7 -->
<svg xmlns="http://www.w3.org/2000/svg" xml:space="preserve" width="210mm" height="297mm" version="1.1" style="shape-rendering:geometricPrecision; text-rendering:geometricPrecision; image-rendering:optimizeQuality; fill-rule:evenodd; clip-rule:evenodd"
viewBox="0 0 2100000 2970000"
 xmlns:xlink="http://www.w3.org/1999/xlink">
 <defs>
  <style type="text/css">
   <![CDATA[
    .str0 {stroke:#00003C;stroke-width:100000}
    .fil1 {fill:none}
    .fil0 {fill:#00003C}
   ]]>
  </style>
 </defs>
 <g id="Capa_x0020_1">
  <metadata id="CorelCorpID_0Corel-Layer"/>
  <path class="fil0" d="M1070396 797078l-455762 2315c-59810,7038 -156975,35515 -205264,94110 -49593,61513 -90893,107447 -96618,242697l0 575197 -165776 0 0 -575197c7587,-182507 69205,-287636 144449,-358611 103316,-100115 191372,-130619 323209,-146148l455762 0 0 165637z"/>
  <path class="fil0" d="M1049557 797078l434923 2315c59810,7038 156975,35515 205264,94110 49593,61513 90893,107447 96618,242697l0 575197 165776 0 0 -575197c-7587,-182507 -69205,-287636 -144449,-358611 -103316,-100115 -191372,-130619 -323209,-146148l-434550 0 -373 165637z"/>
  <path class="fil0" d="M1070396 2268466l-455762 -2315c-59810,-7038 -156975,-35515 -205264,-94110 -49593,-61513 -90893,-107447 -96618,-242697l0 -575197 -165776 0 0 575197c7587,182507 69205,287636 144449,358611 103316,100115 191372,130619 323209,146148l455762 0 0 -165637z"/>
  <path class="fil0" d="M1049557 2268466l434923 -2315c59810,-7038 156975,-35515 205264,-94110 49593,-61513 90893,-107447 96618,-242697l0 -575197 165776 0 0 575197c-7587,182507 -69205,287636 -144449,358611 -103316,100115 -191372,130619 -323209,146148l-434550 0 -373 -165637z"/>
  <circle class="fil1 str0" cx="1049183" cy="1528175" r="353752"/>
  <circle class="fil0" cx="1533223" cy="1050658" r="102025"/>
  <circle class="fil1 str0" cx="1049183" cy="1528175" r="406668"/>
 </g>
</svg>
